<svg xmlns="http://www.w3.org/2000/svg" viewBox="0 0 1000 500" class="mm-worldmap" style="background:#f0f4f2">
  <defs>
    <style>
      .mm-worldmap path { fill: #E8EFEB; stroke: #D8E2DE; stroke-width: 0.5; }
    </style>
  </defs>

  <!-- Canada -->
  <path id="CA" d="M 85,55 L 100,50 L 130,48 L 160,45 L 190,43 L 220,42 L 240,45 L 255,50 L 260,58 L 250,65 L 230,68 L 210,72 L 200,80 L 195,90 L 185,95 L 170,92 L 160,85 L 145,88 L 130,95 L 120,100 L 110,95 L 100,88 L 90,80 L 80,70 Z M 60,62 L 75,58 L 80,65 L 70,72 L 55,70 Z M 45,68 L 58,65 L 62,72 L 50,78 L 38,75 Z" />

  <!-- United States (contiguous + Alaska) -->
  <path id="US" d="M 90,112 L 105,108 L 130,105 L 160,103 L 190,102 L 215,100 L 235,100 L 255,102 L 270,105 L 275,112 L 272,120 L 265,128 L 255,135 L 240,140 L 220,143 L 200,145 L 180,145 L 160,143 L 140,140 L 120,136 L 105,130 L 95,122 Z M 20,75 L 40,70 L 60,68 L 75,72 L 80,80 L 72,88 L 55,92 L 38,90 L 22,85 Z" />

  <!-- Mexico -->
  <path id="MX" d="M 105,145 L 130,143 L 155,143 L 175,145 L 190,150 L 195,158 L 185,165 L 172,170 L 158,175 L 148,182 L 140,178 L 130,170 L 118,162 L 108,155 Z" />

  <!-- Guatemala -->
  <path id="GT" d="M 148,182 L 160,180 L 168,185 L 165,192 L 155,195 L 145,190 Z" />

  <!-- Honduras -->
  <path id="HN" d="M 160,185 L 172,183 L 180,188 L 177,195 L 165,198 L 158,193 Z" />

  <!-- El Salvador -->
  <path id="SV" d="M 155,195 L 165,193 L 168,200 L 160,203 L 152,199 Z" />

  <!-- Nicaragua -->
  <path id="NI" d="M 165,198 L 178,195 L 185,202 L 180,210 L 168,212 L 160,207 Z" />

  <!-- Costa Rica -->
  <path id="CR" d="M 168,212 L 180,210 L 185,218 L 178,225 L 167,222 Z" />

  <!-- Panama -->
  <path id="PA" d="M 178,225 L 192,220 L 200,225 L 195,232 L 183,232 Z" />

  <!-- Cuba -->
  <path id="CU" d="M 162,158 L 178,155 L 195,153 L 200,158 L 190,165 L 172,167 L 158,163 Z" />

  <!-- Haiti -->
  <path id="HT" d="M 200,162 L 210,160 L 215,165 L 208,170 L 198,168 Z" />

  <!-- Dominican Republic -->
  <path id="DO" d="M 210,162 L 222,160 L 226,165 L 218,170 L 208,168 Z" />

  <!-- Jamaica -->
  <path id="JM" d="M 185,170 L 195,168 L 198,174 L 188,176 Z" />

  <!-- Colombia -->
  <path id="CO" d="M 175,235 L 195,232 L 215,230 L 228,238 L 225,250 L 215,260 L 200,265 L 185,260 L 172,250 L 170,240 Z" />

  <!-- Venezuela -->
  <path id="VE" d="M 210,230 L 230,226 L 250,225 L 265,230 L 268,240 L 255,248 L 238,252 L 220,250 L 208,242 Z" />

  <!-- Guyana -->
  <path id="GY" d="M 265,230 L 278,228 L 285,235 L 280,245 L 268,248 Z" />

  <!-- Suriname -->
  <path id="SR" d="M 278,228 L 292,226 L 298,233 L 292,242 L 280,243 Z" />

  <!-- French Guiana -->
  <path id="GF" d="M 292,226 L 305,224 L 310,232 L 303,240 L 292,240 Z" />

  <!-- Brazil -->
  <path id="BR" d="M 200,268 L 220,260 L 245,255 L 270,252 L 295,248 L 310,252 L 318,265 L 320,282 L 315,300 L 305,318 L 290,330 L 270,338 L 250,340 L 230,335 L 215,325 L 205,310 L 198,295 L 195,278 Z" />

  <!-- Ecuador -->
  <path id="EC" d="M 172,255 L 188,250 L 195,260 L 190,272 L 175,275 L 165,265 Z" />

  <!-- Peru -->
  <path id="PE" d="M 172,278 L 190,272 L 205,275 L 210,290 L 205,308 L 192,318 L 178,315 L 165,302 L 162,288 Z" />

  <!-- Bolivia -->
  <path id="BO" d="M 205,310 L 222,305 L 238,308 L 242,322 L 235,338 L 218,342 L 203,335 L 198,320 Z" />

  <!-- Chile -->
  <path id="CL" d="M 190,318 L 205,315 L 210,332 L 212,355 L 210,378 L 205,400 L 195,415 L 183,418 L 180,400 L 182,378 L 185,355 L 186,335 Z" />

  <!-- Argentina -->
  <path id="AR" d="M 205,335 L 225,330 L 248,332 L 260,345 L 258,362 L 250,378 L 235,390 L 218,400 L 205,405 L 195,398 L 192,382 L 195,362 L 200,345 Z" />

  <!-- Uruguay -->
  <path id="UY" d="M 245,355 L 260,350 L 267,360 L 260,370 L 245,370 L 238,362 Z" />

  <!-- Paraguay -->
  <path id="PY" d="M 230,325 L 248,320 L 258,330 L 255,345 L 240,348 L 225,342 Z" />

  <!-- Iceland -->
  <path id="IS" d="M 388,48 L 405,44 L 420,46 L 425,54 L 415,60 L 398,62 L 385,56 Z" />

  <!-- Norway -->
  <path id="NO" d="M 465,52 L 485,45 L 510,42 L 525,48 L 520,58 L 505,65 L 488,70 L 470,68 L 458,60 Z" />

  <!-- Sweden -->
  <path id="SE" d="M 488,58 L 505,55 L 512,62 L 510,78 L 502,90 L 490,95 L 478,90 L 475,75 L 480,62 Z" />

  <!-- Finland -->
  <path id="FI" d="M 510,55 L 528,50 L 542,55 L 545,68 L 535,82 L 518,90 L 505,85 L 503,70 Z" />

  <!-- Denmark -->
  <path id="DK" d="M 480,88 L 492,85 L 496,92 L 490,98 L 478,97 Z" />

  <!-- United Kingdom -->
  <path id="GB" d="M 440,88 L 455,82 L 465,86 L 468,96 L 460,106 L 448,108 L 438,100 L 437,92 Z M 435,82 L 444,78 L 450,83 L 443,88 L 432,87 Z" />

  <!-- Ireland -->
  <path id="IE" d="M 427,90 L 438,87 L 440,95 L 432,102 L 422,100 L 420,93 Z" />

  <!-- Portugal -->
  <path id="PT" d="M 435,125 L 445,122 L 448,130 L 445,140 L 436,143 L 430,136 L 432,128 Z" />

  <!-- Spain -->
  <path id="ES" d="M 445,118 L 468,115 L 488,116 L 495,122 L 492,132 L 480,138 L 460,140 L 445,138 L 438,130 Z" />

  <!-- France -->
  <path id="FR" d="M 460,105 L 480,102 L 500,104 L 508,112 L 505,122 L 492,128 L 472,130 L 458,125 L 452,115 Z" />

  <!-- Belgium -->
  <path id="BE" d="M 468,100 L 482,98 L 488,104 L 482,110 L 468,110 L 462,105 Z" />

  <!-- Netherlands -->
  <path id="NL" d="M 472,94 L 485,92 L 490,98 L 483,104 L 470,103 L 465,98 Z" />

  <!-- Luxembourg -->
  <path id="LU" d="M 483,106 L 490,104 L 492,110 L 486,112 L 481,109 Z" />

  <!-- Germany -->
  <path id="DE" d="M 485,90 L 508,88 L 520,92 L 522,102 L 515,112 L 500,118 L 485,116 L 475,108 L 476,98 Z" />

  <!-- Switzerland -->
  <path id="CH" d="M 483,115 L 498,113 L 505,118 L 500,126 L 485,126 L 478,120 Z" />

  <!-- Austria -->
  <path id="AT" d="M 500,112 L 522,110 L 530,115 L 526,122 L 508,124 L 498,120 Z" />

  <!-- Italy -->
  <path id="IT" d="M 483,120 L 500,118 L 510,122 L 515,132 L 510,145 L 500,155 L 490,160 L 483,150 L 480,138 L 480,128 Z" />

  <!-- Czech Republic -->
  <path id="CZ" d="M 502,102 L 520,100 L 528,105 L 525,112 L 508,114 L 498,110 Z" />

  <!-- Slovakia -->
  <path id="SK" d="M 518,108 L 535,106 L 542,111 L 536,118 L 518,118 L 512,113 Z" />

  <!-- Poland -->
  <path id="PL" d="M 500,92 L 525,88 L 545,90 L 552,100 L 545,110 L 528,115 L 508,114 L 498,108 L 496,100 Z" />

  <!-- Hungary -->
  <path id="HU" d="M 515,118 L 538,116 L 548,120 L 545,130 L 528,134 L 512,132 L 508,124 Z" />

  <!-- Romania -->
  <path id="RO" d="M 535,112 L 558,108 L 572,112 L 575,122 L 565,132 L 548,136 L 532,132 L 525,122 Z" />

  <!-- Serbia -->
  <path id="RS" d="M 512,128 L 528,126 L 534,132 L 530,142 L 516,145 L 508,138 Z" />

  <!-- Croatia -->
  <path id="HR" d="M 503,124 L 518,122 L 524,128 L 518,136 L 505,138 L 498,132 Z" />

  <!-- Bosnia and Herzegovina -->
  <path id="BA" d="M 508,130 L 522,128 L 526,135 L 518,142 L 506,140 Z" />

  <!-- North Macedonia -->
  <path id="MK" d="M 520,140 L 532,138 L 536,144 L 528,150 L 516,148 Z" />

  <!-- Albania -->
  <path id="AL" d="M 510,140 L 520,138 L 522,146 L 515,152 L 506,150 Z" />

  <!-- Greece -->
  <path id="GR" d="M 512,148 L 532,144 L 542,150 L 540,162 L 528,168 L 514,165 L 506,156 Z" />

  <!-- Bulgaria -->
  <path id="BG" d="M 530,128 L 552,124 L 562,130 L 558,140 L 540,145 L 526,142 Z" />

  <!-- Moldova -->
  <path id="MD" d="M 555,112 L 568,110 L 572,118 L 564,125 L 550,122 Z" />

  <!-- Ukraine -->
  <path id="UA" d="M 535,95 L 570,90 L 600,88 L 615,95 L 612,108 L 595,118 L 572,122 L 550,120 L 530,115 L 522,105 Z" />

  <!-- Belarus -->
  <path id="BY" d="M 530,80 L 558,76 L 578,78 L 582,88 L 568,95 L 545,96 L 525,92 Z" />

  <!-- Lithuania -->
  <path id="LT" d="M 520,78 L 538,75 L 542,82 L 534,88 L 516,86 Z" />

  <!-- Latvia -->
  <path id="LV" d="M 520,70 L 542,67 L 548,74 L 540,80 L 518,80 Z" />

  <!-- Estonia -->
  <path id="EE" d="M 520,62 L 540,59 L 546,65 L 538,71 L 518,71 Z" />

  <!-- Russia (simplified - two parts) -->
  <path id="RU" d="M 545,55 L 600,48 L 680,42 L 760,40 L 840,42 L 900,45 L 940,50 L 960,58 L 945,68 L 900,75 L 850,80 L 800,82 L 750,80 L 700,78 L 660,82 L 635,90 L 612,95 L 590,90 L 568,85 L 545,78 L 528,68 L 530,60 Z" />

  <!-- Kazakhstan -->
  <path id="KZ" d="M 590,108 L 630,100 L 670,98 L 700,102 L 705,118 L 695,132 L 665,140 L 635,142 L 608,138 L 588,128 Z" />

  <!-- Turkey -->
  <path id="TR" d="M 545,140 L 575,135 L 610,132 L 630,136 L 632,148 L 618,158 L 588,162 L 558,160 L 538,152 Z" />

  <!-- Syria -->
  <path id="SY" d="M 578,152 L 600,148 L 612,152 L 610,165 L 590,168 L 572,165 Z" />

  <!-- Lebanon -->
  <path id="LB" d="M 570,158 L 580,156 L 582,163 L 573,166 Z" />

  <!-- Israel -->
  <path id="IL" d="M 568,162 L 578,160 L 580,170 L 573,178 L 564,172 Z" />

  <!-- Jordan -->
  <path id="JO" d="M 578,162 L 592,160 L 596,170 L 588,180 L 574,177 Z" />

  <!-- Iraq -->
  <path id="IQ" d="M 590,148 L 618,144 L 635,148 L 638,162 L 625,175 L 602,178 L 585,172 L 580,160 Z" />

  <!-- Iran -->
  <path id="IR" d="M 618,138 L 655,132 L 688,135 L 700,148 L 695,165 L 675,175 L 645,178 L 618,172 L 600,160 L 600,148 Z" />

  <!-- Saudi Arabia -->
  <path id="SA" d="M 570,172 L 600,168 L 632,165 L 648,172 L 645,195 L 625,208 L 598,212 L 575,205 L 558,190 L 558,178 Z" />

  <!-- Yemen -->
  <path id="YE" d="M 578,205 L 610,200 L 638,200 L 650,208 L 640,220 L 612,222 L 585,218 Z" />

  <!-- Oman -->
  <path id="OM" d="M 640,185 L 660,178 L 678,182 L 682,198 L 668,212 L 648,215 L 638,202 Z" />

  <!-- UAE -->
  <path id="AE" d="M 638,185 L 658,180 L 662,188 L 650,196 L 636,192 Z" />

  <!-- Qatar -->
  <path id="QA" d="M 628,185 L 636,183 L 638,192 L 631,195 L 624,190 Z" />

  <!-- Kuwait -->
  <path id="KW" d="M 618,168 L 628,165 L 632,172 L 624,178 L 615,174 Z" />

  <!-- Georgia -->
  <path id="GE" d="M 590,130 L 615,126 L 625,132 L 620,140 L 598,142 L 585,138 Z" />

  <!-- Armenia -->
  <path id="AM" d="M 612,135 L 628,132 L 632,140 L 622,147 L 608,145 Z" />

  <!-- Azerbaijan -->
  <path id="AZ" d="M 625,130 L 645,127 L 650,137 L 638,146 L 620,144 Z" />

  <!-- Afghanistan -->
  <path id="AF" d="M 668,130 L 700,125 L 720,128 L 725,142 L 712,155 L 688,158 L 665,152 L 655,140 Z" />

  <!-- Pakistan -->
  <path id="PK" d="M 680,148 L 718,142 L 742,145 L 748,162 L 738,178 L 712,185 L 688,182 L 668,170 L 665,155 Z" />

  <!-- India -->
  <path id="IN" d="M 695,165 L 730,158 L 755,160 L 768,175 L 765,198 L 750,218 L 730,232 L 712,235 L 698,225 L 690,205 L 688,185 Z" />

  <!-- Nepal -->
  <path id="NP" d="M 735,158 L 760,155 L 768,162 L 755,168 L 732,168 Z" />

  <!-- Bhutan -->
  <path id="BT" d="M 762,157 L 775,155 L 778,162 L 764,165 Z" />

  <!-- Sri Lanka -->
  <path id="LK" d="M 725,238 L 735,235 L 738,245 L 730,250 L 720,246 Z" />

  <!-- Bangladesh -->
  <path id="BD" d="M 758,168 L 775,165 L 780,175 L 770,185 L 752,183 L 748,173 Z" />

  <!-- Myanmar -->
  <path id="MM" d="M 772,162 L 792,158 L 802,168 L 798,185 L 785,195 L 770,190 L 765,175 Z" />

  <!-- Thailand -->
  <path id="TH" d="M 785,188 L 805,182 L 815,192 L 812,208 L 800,220 L 785,215 L 778,200 Z" />

  <!-- Vietnam -->
  <path id="VN" d="M 800,178 L 818,172 L 828,182 L 822,200 L 812,218 L 800,225 L 790,218 L 795,200 Z" />

  <!-- Laos -->
  <path id="LA" d="M 792,175 L 808,170 L 815,180 L 808,195 L 792,195 L 784,185 Z" />

  <!-- Cambodia -->
  <path id="KH" d="M 798,210 L 815,207 L 820,218 L 810,228 L 796,226 L 790,218 Z" />

  <!-- Malaysia (peninsula) -->
  <path id="MY" d="M 798,228 L 815,225 L 820,235 L 810,245 L 795,242 Z" />

  <!-- Singapore -->
  <path id="SG" d="M 805,246 L 812,244 L 813,250 L 806,251 Z" />

  <!-- Indonesia (Java/Sumatra simplified) -->
  <path id="ID" d="M 790,252 L 820,248 L 845,245 L 865,248 L 870,258 L 850,265 L 820,268 L 795,265 Z M 860,258 L 888,252 L 910,255 L 912,265 L 892,270 L 862,268 Z" />

  <!-- Philippines -->
  <path id="PH" d="M 840,195 L 858,188 L 868,195 L 862,210 L 848,215 L 836,208 Z M 862,178 L 878,172 L 882,182 L 872,188 L 858,185 Z" />

  <!-- China -->
  <path id="CN" d="M 718,100 L 760,92 L 800,88 L 838,90 L 862,98 L 870,112 L 858,128 L 835,140 L 808,148 L 782,152 L 755,150 L 730,145 L 710,135 L 700,120 Z" />

  <!-- Mongolia -->
  <path id="MN" d="M 720,82 L 768,76 L 815,74 L 848,78 L 855,90 L 838,98 L 800,102 L 758,105 L 720,100 Z" />

  <!-- North Korea -->
  <path id="KP" d="M 848,108 L 868,104 L 878,112 L 872,122 L 855,125 L 842,118 Z" />

  <!-- South Korea -->
  <path id="KR" d="M 858,118 L 875,115 L 880,125 L 870,135 L 852,132 L 848,122 Z" />

  <!-- Japan -->
  <path id="JP" d="M 882,108 L 900,100 L 912,105 L 908,120 L 895,128 L 878,122 Z M 895,92 L 910,86 L 918,92 L 912,102 L 895,100 Z" />

  <!-- Taiwan -->
  <path id="TW" d="M 858,150 L 868,145 L 872,155 L 864,162 L 855,158 Z" />

  <!-- Uzbekistan -->
  <path id="UZ" d="M 650,115 L 682,110 L 698,115 L 695,128 L 670,132 L 648,128 Z" />

  <!-- Turkmenistan -->
  <path id="TM" d="M 638,122 L 668,118 L 685,122 L 682,135 L 658,140 L 635,136 Z" />

  <!-- Tajikistan -->
  <path id="TJ" d="M 680,128 L 702,124 L 710,132 L 700,142 L 678,142 Z" />

  <!-- Kyrgyzstan -->
  <path id="KG" d="M 698,112 L 725,108 L 732,115 L 720,124 L 698,124 Z" />

  <!-- Morocco -->
  <path id="MA" d="M 430,148 L 460,142 L 475,148 L 470,162 L 450,170 L 430,168 L 420,158 Z" />

  <!-- Algeria -->
  <path id="DZ" d="M 460,145 L 500,140 L 528,142 L 530,160 L 515,178 L 490,185 L 462,182 L 445,168 L 448,152 Z" />

  <!-- Tunisia -->
  <path id="TN" d="M 490,138 L 505,135 L 512,142 L 508,155 L 495,160 L 485,152 L 482,143 Z" />

  <!-- Libya -->
  <path id="LY" d="M 505,140 L 540,136 L 560,138 L 562,155 L 548,170 L 520,175 L 498,170 L 495,155 Z" />

  <!-- Egypt -->
  <path id="EG" d="M 550,148 L 578,144 L 590,150 L 585,168 L 565,178 L 542,175 L 535,160 Z" />

  <!-- Sudan -->
  <path id="SD" d="M 548,175 L 580,170 L 608,172 L 615,188 L 605,208 L 580,218 L 552,215 L 532,200 L 530,185 Z" />

  <!-- Ethiopia -->
  <path id="ET" d="M 582,210 L 615,205 L 638,210 L 640,228 L 622,242 L 598,248 L 575,242 L 562,228 L 565,215 Z" />

  <!-- Somalia -->
  <path id="SO" d="M 615,208 L 640,205 L 658,215 L 655,235 L 635,248 L 612,248 L 602,235 L 608,218 Z" />

  <!-- Kenya -->
  <path id="KE" d="M 578,248 L 608,242 L 622,248 L 618,268 L 600,278 L 580,275 L 565,262 L 568,250 Z" />

  <!-- Tanzania -->
  <path id="TZ" d="M 570,275 L 602,270 L 622,272 L 618,295 L 598,308 L 572,305 L 555,290 L 558,278 Z" />

  <!-- Uganda -->
  <path id="UG" d="M 560,248 L 580,244 L 590,252 L 585,265 L 565,268 L 550,260 Z" />

  <!-- Rwanda -->
  <path id="RW" d="M 565,265 L 578,262 L 582,270 L 572,275 L 560,272 Z" />

  <!-- Mozambique -->
  <path id="MZ" d="M 575,305 L 605,300 L 618,308 L 615,332 L 598,345 L 578,342 L 562,328 L 560,312 Z" />

  <!-- Zimbabwe -->
  <path id="ZW" d="M 560,305 L 582,300 L 595,308 L 590,325 L 570,330 L 550,322 L 548,310 Z" />

  <!-- Zambia -->
  <path id="ZM" d="M 548,285 L 578,280 L 598,285 L 600,305 L 580,315 L 555,312 L 538,298 Z" />

  <!-- Botswana -->
  <path id="BW" d="M 545,318 L 572,312 L 585,320 L 580,338 L 558,342 L 535,332 Z" />

  <!-- Namibia -->
  <path id="NA" d="M 518,305 L 548,298 L 562,308 L 558,330 L 538,340 L 515,335 L 505,320 Z" />

  <!-- South Africa -->
  <path id="ZA" d="M 510,335 L 545,328 L 572,335 L 582,350 L 572,368 L 548,378 L 520,375 L 500,360 L 498,345 Z" />

  <!-- Angola -->
  <path id="AO" d="M 510,280 L 542,274 L 560,280 L 558,305 L 538,315 L 510,310 L 495,295 L 498,283 Z" />

  <!-- DR Congo -->
  <path id="CD" d="M 520,250 L 558,244 L 582,248 L 590,265 L 585,288 L 558,298 L 525,295 L 505,278 L 508,258 Z" />

  <!-- Republic of Congo -->
  <path id="CG" d="M 505,252 L 525,248 L 532,258 L 525,272 L 505,270 L 495,260 Z" />

  <!-- Cameroon -->
  <path id="CM" d="M 490,228 L 515,222 L 528,230 L 525,248 L 505,255 L 486,248 L 482,236 Z" />

  <!-- Nigeria -->
  <path id="NG" d="M 470,210 L 502,205 L 520,210 L 525,228 L 508,240 L 482,242 L 460,232 L 455,218 Z" />

  <!-- Niger -->
  <path id="NE" d="M 460,188 L 498,182 L 525,185 L 528,205 L 505,215 L 472,218 L 445,210 L 442,196 Z" />

  <!-- Mali -->
  <path id="ML" d="M 415,192 L 450,188 L 462,195 L 458,218 L 438,230 L 410,228 L 390,215 L 392,200 Z" />

  <!-- Mauritania -->
  <path id="MR" d="M 390,170 L 428,165 L 445,172 L 442,192 L 415,198 L 388,192 L 375,182 Z" />

  <!-- Senegal -->
  <path id="SN" d="M 388,205 L 410,200 L 415,210 L 405,220 L 385,218 L 380,210 Z" />

  <!-- Guinea -->
  <path id="GN" d="M 408,218 L 428,214 L 435,222 L 428,232 L 408,232 L 400,224 Z" />

  <!-- Sierra Leone -->
  <path id="SL" d="M 400,230 L 415,228 L 418,238 L 408,244 L 395,240 Z" />

  <!-- Liberia -->
  <path id="LR" d="M 415,232 L 432,228 L 438,238 L 428,248 L 412,246 Z" />

  <!-- Ivory Coast -->
  <path id="CI" d="M 428,225 L 452,220 L 460,228 L 455,242 L 432,248 L 415,242 Z" />

  <!-- Ghana -->
  <path id="GH" d="M 450,218 L 468,215 L 472,228 L 465,242 L 448,244 L 440,230 Z" />

  <!-- Burkina Faso -->
  <path id="BF" d="M 442,205 L 470,200 L 480,208 L 475,222 L 450,225 L 432,218 Z" />

  <!-- Togo -->
  <path id="TG" d="M 468,215 L 478,212 L 481,225 L 472,235 L 463,230 Z" />

  <!-- Benin -->
  <path id="BJ" d="M 472,210 L 485,207 L 488,220 L 480,232 L 468,228 Z" />

  <!-- Chad -->
  <path id="TD" d="M 510,192 L 540,188 L 555,195 L 552,218 L 530,232 L 505,230 L 488,218 L 490,200 Z" />

  <!-- Central African Republic -->
  <path id="CF" d="M 510,230 L 540,225 L 560,230 L 558,248 L 532,255 L 505,250 L 495,238 Z" />

  <!-- South Sudan -->
  <path id="SS" d="M 548,210 L 580,205 L 600,210 L 598,228 L 572,238 L 545,235 L 528,222 L 532,212 Z" />

  <!-- Eritrea -->
  <path id="ER" d="M 582,192 L 608,185 L 618,192 L 610,205 L 585,208 L 572,200 Z" />

  <!-- Djibouti -->
  <path id="DJ" d="M 615,200 L 628,196 L 630,205 L 618,210 Z" />

  <!-- Madagascar -->
  <path id="MG" d="M 620,288 L 635,278 L 645,285 L 648,308 L 638,328 L 622,332 L 610,318 L 608,298 Z" />

  <!-- Australia -->
  <path id="AU" d="M 800,285 L 840,272 L 880,268 L 918,272 L 940,288 L 945,308 L 935,330 L 912,345 L 882,352 L 848,350 L 815,340 L 795,320 L 790,300 Z" />

  <!-- New Zealand -->
  <path id="NZ" d="M 948,340 L 960,330 L 968,340 L 962,355 L 948,355 Z M 955,360 L 965,355 L 970,368 L 960,378 L 948,372 Z" />

  <!-- Papua New Guinea -->
  <path id="PG" d="M 878,248 L 905,240 L 922,245 L 920,262 L 900,268 L 875,265 Z" />

  <!-- Greenland -->
  <path id="GL" d="M 220,22 L 258,15 L 295,12 L 320,18 L 315,35 L 290,45 L 255,48 L 218,42 L 205,32 Z" />

  <!-- Libya ocean fill / Antarctica placeholder omitted for weight -->

  <!-- Morocco Western Sahara approximate extension already in MA -->

  <!-- Kazakhstan extension already covered -->

</svg>
